<mxfile host="app.diagrams.net" modified="2020-09-16T19:53:11.552Z" agent="5.0 (Windows NT 10.0; Win64; x64) AppleWebKit/537.36 (KHTML, like Gecko) Chrome/85.0.4183.102 Safari/537.36" etag="a4YCVtL0hmmN1egmWu3z" version="13.7.1" type="github" pages="2">
  <diagram id="v70nW824M8R4AOz3LLfw" name="OrderEntry">
    <mxGraphModel dx="3545" dy="552" grid="1" gridSize="11" guides="1" tooltips="1" connect="1" arrows="1" fold="1" page="1" pageScale="1" pageWidth="2339" pageHeight="3300" math="0" shadow="0">
      <root>
        <mxCell id="0" />
        <mxCell id="1" parent="0" />
        <mxCell id="3Qp2xXLN1smk-MfCKVBW-4" value="" style="edgeStyle=orthogonalEdgeStyle;rounded=0;orthogonalLoop=1;jettySize=auto;html=1;entryX=0;entryY=0.5;entryDx=0;entryDy=0;startArrow=classic;startFill=1;endArrow=none;endFill=0;" parent="1" source="3Qp2xXLN1smk-MfCKVBW-2" target="SC3JEf4WINsSZaT9sH8f-64" edge="1">
          <mxGeometry relative="1" as="geometry">
            <mxPoint x="1353" y="240" as="targetPoint" />
          </mxGeometry>
        </mxCell>
        <mxCell id="YiUYvIcf1jTSnU425tms-5" style="edgeStyle=orthogonalEdgeStyle;rounded=0;orthogonalLoop=1;jettySize=auto;html=1;entryX=1;entryY=0.5;entryDx=0;entryDy=0;startArrow=classic;startFill=1;endArrow=classic;endFill=1;" parent="1" source="3Qp2xXLN1smk-MfCKVBW-2" target="jS5UeziIzz8t74J8Ag5z-3" edge="1">
          <mxGeometry relative="1" as="geometry" />
        </mxCell>
        <mxCell id="3Qp2xXLN1smk-MfCKVBW-2" value="&lt;font style=&quot;font-size: 14px&quot;&gt;Cliente&lt;/font&gt;" style="rounded=1;whiteSpace=wrap;html=1;fillColor=#dae8fc;strokeColor=#6c8ebf;fontSize=13;" parent="1" vertex="1">
          <mxGeometry x="1034" y="210" width="120" height="60" as="geometry" />
        </mxCell>
        <mxCell id="3Qp2xXLN1smk-MfCKVBW-7" style="edgeStyle=orthogonalEdgeStyle;rounded=0;orthogonalLoop=1;jettySize=auto;html=1;entryX=0;entryY=0.5;entryDx=0;entryDy=0;exitX=0.995;exitY=0.361;exitDx=0;exitDy=0;exitPerimeter=0;" parent="1" source="jS5UeziIzz8t74J8Ag5z-44" target="3Qp2xXLN1smk-MfCKVBW-5" edge="1">
          <mxGeometry relative="1" as="geometry">
            <mxPoint x="1464" y="240" as="sourcePoint" />
            <Array as="points">
              <mxPoint x="1514" y="426" />
              <mxPoint x="1594" y="426" />
              <mxPoint x="1594" y="240" />
            </Array>
          </mxGeometry>
        </mxCell>
        <mxCell id="3Qp2xXLN1smk-MfCKVBW-10" value="" style="edgeStyle=orthogonalEdgeStyle;rounded=0;orthogonalLoop=1;jettySize=auto;html=1;exitX=0.5;exitY=1;exitDx=0;exitDy=0;" parent="1" source="3Qp2xXLN1smk-MfCKVBW-5" target="3Qp2xXLN1smk-MfCKVBW-9" edge="1">
          <mxGeometry relative="1" as="geometry" />
        </mxCell>
        <mxCell id="3Qp2xXLN1smk-MfCKVBW-5" value="&lt;font style=&quot;font-size: 14px&quot;&gt;&lt;b&gt;Cidade &lt;br&gt;sem Frete&lt;/b&gt;&lt;/font&gt;" style="rhombus;whiteSpace=wrap;html=1;" parent="1" vertex="1">
          <mxGeometry x="1672" y="195" width="130" height="90" as="geometry" />
        </mxCell>
        <mxCell id="3Qp2xXLN1smk-MfCKVBW-9" value="&lt;font style=&quot;font-size: 14px&quot;&gt;Redirecionar para Centro de Controle de Leads&lt;/font&gt;" style="whiteSpace=wrap;html=1;fillColor=#dae8fc;strokeColor=#6c8ebf;" parent="1" vertex="1">
          <mxGeometry x="1826" y="285" width="190" height="60" as="geometry" />
        </mxCell>
        <mxCell id="3Qp2xXLN1smk-MfCKVBW-12" value="&lt;div&gt;1. Mostrar mensagem de produtos indisponíveis para a região.&lt;/div&gt;&lt;div&gt;2. Registrar casos de cidades sem frete/abrir ticket no SNOW&lt;/div&gt;" style="text;html=1;fillColor=none;align=center;verticalAlign=middle;whiteSpace=wrap;rounded=0;fontStyle=1;strokeColor=#000000;" parent="1" vertex="1">
          <mxGeometry x="1826" y="217.5" width="420" height="45" as="geometry" />
        </mxCell>
        <mxCell id="2mpdW63NxKz5ffvul3Hc-3" style="edgeStyle=orthogonalEdgeStyle;rounded=0;orthogonalLoop=1;jettySize=auto;html=1;entryX=0.5;entryY=0;entryDx=0;entryDy=0;" parent="1" source="jS5UeziIzz8t74J8Ag5z-1" target="jS5UeziIzz8t74J8Ag5z-52" edge="1">
          <mxGeometry relative="1" as="geometry" />
        </mxCell>
        <mxCell id="jS5UeziIzz8t74J8Ag5z-1" value="Checkout&lt;br&gt;(Comprar Produto)" style="whiteSpace=wrap;html=1;fontStyle=0;strokeColor=#6c8ebf;fillColor=#dae8fc;" parent="1" vertex="1">
          <mxGeometry x="1320" y="1109.25" width="176" height="60" as="geometry" />
        </mxCell>
        <mxCell id="jS5UeziIzz8t74J8Ag5z-6" value="" style="edgeStyle=orthogonalEdgeStyle;rounded=0;orthogonalLoop=1;jettySize=auto;html=1;fontSize=13;fontColor=#000000;" parent="1" source="jS5UeziIzz8t74J8Ag5z-3" edge="1">
          <mxGeometry relative="1" as="geometry">
            <mxPoint x="577" y="308" as="targetPoint" />
          </mxGeometry>
        </mxCell>
        <mxCell id="YiUYvIcf1jTSnU425tms-6" style="edgeStyle=orthogonalEdgeStyle;rounded=0;orthogonalLoop=1;jettySize=auto;html=1;startArrow=classic;startFill=1;endArrow=classic;endFill=1;entryX=0;entryY=0.5;entryDx=0;entryDy=0;" parent="1" source="jS5UeziIzz8t74J8Ag5z-3" target="2mpdW63NxKz5ffvul3Hc-2" edge="1">
          <mxGeometry relative="1" as="geometry">
            <mxPoint x="1298" y="946" as="targetPoint" />
            <Array as="points">
              <mxPoint x="792" y="377" />
              <mxPoint x="869" y="377" />
              <mxPoint x="869" y="891" />
              <mxPoint x="1265" y="891" />
              <mxPoint x="1265" y="932" />
            </Array>
          </mxGeometry>
        </mxCell>
        <mxCell id="jS5UeziIzz8t74J8Ag5z-3" value="Autentica/Cadastra Cliente&lt;br&gt;(API Economy)" style="whiteSpace=wrap;html=1;fontStyle=0;strokeColor=#6c8ebf;fillColor=#dae8fc;" parent="1" vertex="1">
          <mxGeometry x="717" y="210" width="120" height="60" as="geometry" />
        </mxCell>
        <mxCell id="jS5UeziIzz8t74J8Ag5z-28" value="" style="edgeStyle=orthogonalEdgeStyle;rounded=0;orthogonalLoop=1;jettySize=auto;html=1;fontSize=13;fontColor=#000000;" parent="1" source="jS5UeziIzz8t74J8Ag5z-25" target="jS5UeziIzz8t74J8Ag5z-27" edge="1">
          <mxGeometry relative="1" as="geometry" />
        </mxCell>
        <mxCell id="YiUYvIcf1jTSnU425tms-9" style="edgeStyle=orthogonalEdgeStyle;rounded=0;orthogonalLoop=1;jettySize=auto;html=1;entryX=0.5;entryY=0;entryDx=0;entryDy=0;startArrow=none;startFill=0;endArrow=classic;endFill=1;" parent="1" source="jS5UeziIzz8t74J8Ag5z-25" target="jS5UeziIzz8t74J8Ag5z-1" edge="1">
          <mxGeometry relative="1" as="geometry" />
        </mxCell>
        <mxCell id="jS5UeziIzz8t74J8Ag5z-25" value="Add to cart" style="whiteSpace=wrap;html=1;fontStyle=0;strokeColor=#6c8ebf;fillColor=#dae8fc;" parent="1" vertex="1">
          <mxGeometry x="1320" y="1001" width="176" height="61.5" as="geometry" />
        </mxCell>
        <mxCell id="jS5UeziIzz8t74J8Ag5z-27" value="* Forecast para quantidade está disponível em BI.&lt;br&gt;* Existe uma frente de cadastro no  SF.&lt;br&gt;* Não será considerado no MVP" style="whiteSpace=wrap;html=1;fontStyle=0;strokeColor=#C73500;fillColor=#fa6800;fontColor=#ffffff;align=left;" parent="1" vertex="1">
          <mxGeometry x="1782" y="1001" width="297" height="60" as="geometry" />
        </mxCell>
        <mxCell id="jS5UeziIzz8t74J8Ag5z-31" value="&lt;div&gt;* Ver com Pricing uma lista de preços padrão com impostos já calculados.&lt;/div&gt;&lt;div&gt;* SKU: Utilizar o código do material SAP no gerenciamento dos produtos.&lt;/div&gt;" style="whiteSpace=wrap;html=1;fontStyle=0;strokeColor=#C73500;fillColor=#fa6800;fontColor=#ffffff;" parent="1" vertex="1">
          <mxGeometry x="1782" y="539" width="481" height="60" as="geometry" />
        </mxCell>
        <mxCell id="jS5UeziIzz8t74J8Ag5z-39" value="" style="edgeStyle=orthogonalEdgeStyle;rounded=0;orthogonalLoop=1;jettySize=auto;html=1;fontSize=13;fontColor=#000000;" parent="1" edge="1">
          <mxGeometry relative="1" as="geometry">
            <mxPoint x="446.99999999999955" y="953.25" as="sourcePoint" />
          </mxGeometry>
        </mxCell>
        <mxCell id="jS5UeziIzz8t74J8Ag5z-43" value="" style="edgeStyle=orthogonalEdgeStyle;rounded=0;orthogonalLoop=1;jettySize=auto;html=1;fontSize=13;fontColor=#000000;" parent="1" source="jS5UeziIzz8t74J8Ag5z-40" target="jS5UeziIzz8t74J8Ag5z-42" edge="1">
          <mxGeometry relative="1" as="geometry" />
        </mxCell>
        <mxCell id="YiUYvIcf1jTSnU425tms-2" style="edgeStyle=orthogonalEdgeStyle;rounded=0;orthogonalLoop=1;jettySize=auto;html=1;entryX=0.5;entryY=0;entryDx=0;entryDy=0;startArrow=none;startFill=0;endArrow=classic;endFill=1;" parent="1" source="jS5UeziIzz8t74J8Ag5z-40" target="2mpdW63NxKz5ffvul3Hc-2" edge="1">
          <mxGeometry relative="1" as="geometry" />
        </mxCell>
        <mxCell id="jS5UeziIzz8t74J8Ag5z-40" value="Selecionar&lt;br&gt;DeliveryDate&lt;br&gt;(Pricing List)" style="whiteSpace=wrap;html=1;fontStyle=0;strokeColor=#6c8ebf;fillColor=#dae8fc;" parent="1" vertex="1">
          <mxGeometry x="1326" y="781" width="176" height="60" as="geometry" />
        </mxCell>
        <mxCell id="jS5UeziIzz8t74J8Ag5z-42" value="&lt;div&gt;* MVP: Permitir &quot;Delivery Date&quot;.&lt;/div&gt;&lt;div&gt;- ETA: Semana aproximada para o Delivery Date.&lt;/div&gt;&lt;div style=&quot;&quot;&gt;- DEFINIR: Não teremos &quot;Location&quot; para cada item do pedido no MVP.&lt;/div&gt;" style="whiteSpace=wrap;html=1;fontStyle=0;strokeColor=#C73500;fillColor=#fa6800;fontColor=#ffffff;align=left;" parent="1" vertex="1">
          <mxGeometry x="1782" y="781" width="452" height="60" as="geometry" />
        </mxCell>
        <mxCell id="SC3JEf4WINsSZaT9sH8f-66" style="edgeStyle=orthogonalEdgeStyle;rounded=0;orthogonalLoop=1;jettySize=auto;html=1;exitX=-0.004;exitY=0.545;exitDx=0;exitDy=0;startArrow=classic;startFill=1;endArrow=none;endFill=0;exitPerimeter=0;entryX=0.5;entryY=1;entryDx=0;entryDy=0;" parent="1" source="jS5UeziIzz8t74J8Ag5z-44" target="3Qp2xXLN1smk-MfCKVBW-2" edge="1">
          <mxGeometry relative="1" as="geometry">
            <mxPoint x="1100" y="297" as="targetPoint" />
            <Array as="points">
              <mxPoint x="1094" y="429" />
            </Array>
          </mxGeometry>
        </mxCell>
        <mxCell id="SC3JEf4WINsSZaT9sH8f-76" style="edgeStyle=orthogonalEdgeStyle;rounded=0;orthogonalLoop=1;jettySize=auto;html=1;entryX=0.5;entryY=0;entryDx=0;entryDy=0;startArrow=none;startFill=0;endArrow=classic;endFill=1;" parent="1" edge="1">
          <mxGeometry relative="1" as="geometry">
            <mxPoint x="1419.5" y="456" as="sourcePoint" />
            <mxPoint x="1419.5" y="538.9999999999998" as="targetPoint" />
          </mxGeometry>
        </mxCell>
        <mxCell id="jS5UeziIzz8t74J8Ag5z-44" value="Endereço de Entrega" style="whiteSpace=wrap;html=1;fontStyle=0;strokeColor=#6c8ebf;fillColor=#dae8fc;" parent="1" vertex="1">
          <mxGeometry x="1328" y="396" width="187" height="60" as="geometry" />
        </mxCell>
        <mxCell id="jS5UeziIzz8t74J8Ag5z-46" value="* Mostrar o Endereço de Pagamento como Padrão.&lt;br&gt;* Buscar da API Economy os endereços cadastrados e permitir novo endereço" style="whiteSpace=wrap;html=1;fontStyle=0;strokeColor=#C73500;fillColor=#fa6800;fontColor=#ffffff;align=left;" parent="1" vertex="1">
          <mxGeometry x="1782" y="396" width="496" height="60" as="geometry" />
        </mxCell>
        <mxCell id="jS5UeziIzz8t74J8Ag5z-51" value="" style="edgeStyle=orthogonalEdgeStyle;rounded=0;orthogonalLoop=1;jettySize=auto;html=1;fontSize=13;fontColor=#000000;" parent="1" target="jS5UeziIzz8t74J8Ag5z-50" edge="1">
          <mxGeometry relative="1" as="geometry">
            <mxPoint x="1100" y="813" as="sourcePoint" />
          </mxGeometry>
        </mxCell>
        <mxCell id="jS5UeziIzz8t74J8Ag5z-53" value="" style="edgeStyle=orthogonalEdgeStyle;rounded=0;orthogonalLoop=1;jettySize=auto;html=1;fontSize=13;fontColor=#000000;startArrow=classic;startFill=1;endArrow=none;endFill=0;" parent="1" edge="1">
          <mxGeometry relative="1" as="geometry">
            <mxPoint x="1265" y="813" as="sourcePoint" />
            <mxPoint x="1397" y="841" as="targetPoint" />
            <Array as="points">
              <mxPoint x="1295" y="813" />
              <mxPoint x="1295" y="861" />
              <mxPoint x="1397" y="861" />
              <mxPoint x="1397" y="841" />
            </Array>
          </mxGeometry>
        </mxCell>
        <mxCell id="YiUYvIcf1jTSnU425tms-4" style="edgeStyle=orthogonalEdgeStyle;rounded=0;orthogonalLoop=1;jettySize=auto;html=1;exitX=0.5;exitY=0;exitDx=0;exitDy=0;entryX=0.75;entryY=1;entryDx=0;entryDy=0;startArrow=none;startFill=0;endArrow=classic;endFill=1;" parent="1" source="jS5UeziIzz8t74J8Ag5z-50" target="jS5UeziIzz8t74J8Ag5z-3" edge="1">
          <mxGeometry relative="1" as="geometry" />
        </mxCell>
        <mxCell id="jS5UeziIzz8t74J8Ag5z-50" value="Cadastrar Novo" style="whiteSpace=wrap;html=1;fontSize=13;fontStyle=1;" parent="1" vertex="1">
          <mxGeometry x="901.9999999999999" y="336" width="120" height="60" as="geometry" />
        </mxCell>
        <mxCell id="jS5UeziIzz8t74J8Ag5z-55" style="edgeStyle=orthogonalEdgeStyle;rounded=0;orthogonalLoop=1;jettySize=auto;html=1;entryX=0;entryY=0.5;entryDx=0;entryDy=0;fontSize=13;fontColor=#000000;" parent="1" source="jS5UeziIzz8t74J8Ag5z-52" target="jS5UeziIzz8t74J8Ag5z-54" edge="1">
          <mxGeometry relative="1" as="geometry" />
        </mxCell>
        <mxCell id="jS5UeziIzz8t74J8Ag5z-57" value="" style="edgeStyle=orthogonalEdgeStyle;rounded=0;orthogonalLoop=1;jettySize=auto;html=1;fontSize=13;fontColor=#000000;" parent="1" source="jS5UeziIzz8t74J8Ag5z-52" target="jS5UeziIzz8t74J8Ag5z-56" edge="1">
          <mxGeometry relative="1" as="geometry" />
        </mxCell>
        <mxCell id="jS5UeziIzz8t74J8Ag5z-52" value="Resumo do Pedido: &lt;br&gt;Preço + Frete" style="whiteSpace=wrap;html=1;fontSize=13;fontStyle=0;fillColor=#dae8fc;strokeColor=#6c8ebf;" parent="1" vertex="1">
          <mxGeometry x="1320" y="1231.25" width="176" height="60" as="geometry" />
        </mxCell>
        <mxCell id="jS5UeziIzz8t74J8Ag5z-54" value="&lt;p style=&quot;margin-top: 0pt ; margin-bottom: 0pt ; margin-left: 0in ; text-indent: 0in ; font-size: 14px&quot;&gt;&lt;font face=&quot;calibri&quot; style=&quot;font-size: 14px&quot;&gt;&lt;b&gt;* Tabela de Fretes do SAP (PriceCheck) - Atualização quinzenal.&lt;/b&gt;&lt;/font&gt;&lt;/p&gt;&lt;p style=&quot;margin-top: 0pt ; margin-bottom: 0pt ; margin-left: 0in ; text-indent: 0in ; font-size: 14px&quot;&gt;&lt;font face=&quot;calibri&quot; style=&quot;font-size: 14px&quot;&gt;&lt;b&gt;Origem: Código da Planta (SLZ1)&lt;/b&gt;&lt;/font&gt;&lt;/p&gt;&lt;p style=&quot;margin-top: 0pt ; margin-bottom: 0pt ; margin-left: 0in ; text-indent: 0in ; font-size: 14px&quot;&gt;&lt;font face=&quot;calibri&quot; style=&quot;font-size: 14px&quot;&gt;&lt;b&gt;Destino:&amp;nbsp; Código do Cliente&lt;/b&gt;&lt;/font&gt;&lt;/p&gt;&lt;p style=&quot;margin-top: 0pt ; margin-bottom: 0pt ; margin-left: 0in ; text-indent: 0in ; font-size: 14px&quot;&gt;&lt;font face=&quot;calibri&quot; style=&quot;font-size: 14px&quot;&gt;&lt;b&gt;SKU:&lt;/b&gt;&lt;/font&gt;&lt;/p&gt;&lt;p style=&quot;margin-top: 0pt ; margin-bottom: 0pt ; margin-left: 0in ; text-indent: 0in ; font-size: 14px&quot;&gt;&lt;font face=&quot;calibri&quot; style=&quot;font-size: 14px&quot;&gt;&lt;b&gt;Quantidade:&lt;/b&gt;&lt;/font&gt;&lt;/p&gt;" style="whiteSpace=wrap;html=1;fontStyle=0;strokeColor=#C73500;fillColor=#fa6800;fontColor=#ffffff;align=left;" parent="1" vertex="1">
          <mxGeometry x="1774.5" y="1209.6299999999999" width="496" height="103.25" as="geometry" />
        </mxCell>
        <mxCell id="jS5UeziIzz8t74J8Ag5z-59" value="" style="edgeStyle=orthogonalEdgeStyle;rounded=0;orthogonalLoop=1;jettySize=auto;html=1;fontSize=13;fontColor=#000000;" parent="1" source="jS5UeziIzz8t74J8Ag5z-56" target="jS5UeziIzz8t74J8Ag5z-58" edge="1">
          <mxGeometry relative="1" as="geometry" />
        </mxCell>
        <mxCell id="jS5UeziIzz8t74J8Ag5z-56" value="Fechar Pedido" style="whiteSpace=wrap;html=1;fontSize=13;fontStyle=0;strokeColor=#005700;fillColor=#008a00;fontColor=#ffffff;" parent="1" vertex="1">
          <mxGeometry x="1320" y="1351.25" width="176" height="60" as="geometry" />
        </mxCell>
        <mxCell id="jS5UeziIzz8t74J8Ag5z-58" value="Meio de Pagamento:&amp;nbsp;&lt;br&gt;Gerar Boleto" style="whiteSpace=wrap;html=1;fontSize=13;fontStyle=0;strokeColor=#6c8ebf;fillColor=#dae8fc;" parent="1" vertex="1">
          <mxGeometry x="1320" y="1474" width="176" height="60" as="geometry" />
        </mxCell>
        <mxCell id="YiUYvIcf1jTSnU425tms-49" style="edgeStyle=orthogonalEdgeStyle;rounded=0;orthogonalLoop=1;jettySize=auto;html=1;entryX=0.552;entryY=0;entryDx=0;entryDy=0;entryPerimeter=0;startArrow=none;startFill=0;endArrow=classic;endFill=1;" parent="1" edge="1">
          <mxGeometry relative="1" as="geometry">
            <mxPoint x="1415" y="962" as="sourcePoint" />
            <mxPoint x="1414.0079999999998" y="1001" as="targetPoint" />
          </mxGeometry>
        </mxCell>
        <mxCell id="2mpdW63NxKz5ffvul3Hc-2" value="Ver preço" style="whiteSpace=wrap;html=1;fontStyle=0;strokeColor=#6c8ebf;fillColor=#dae8fc;" parent="1" vertex="1">
          <mxGeometry x="1323" y="902" width="182" height="60" as="geometry" />
        </mxCell>
        <mxCell id="SC3JEf4WINsSZaT9sH8f-1" value="" style="edgeStyle=orthogonalEdgeStyle;rounded=0;orthogonalLoop=1;jettySize=auto;html=1;" parent="1" source="SC3JEf4WINsSZaT9sH8f-3" target="SC3JEf4WINsSZaT9sH8f-5" edge="1">
          <mxGeometry relative="1" as="geometry" />
        </mxCell>
        <mxCell id="SC3JEf4WINsSZaT9sH8f-2" style="edgeStyle=orthogonalEdgeStyle;rounded=0;orthogonalLoop=1;jettySize=auto;html=1;fontSize=13;fontColor=#000000;" parent="1" source="SC3JEf4WINsSZaT9sH8f-3" target="SC3JEf4WINsSZaT9sH8f-18" edge="1">
          <mxGeometry relative="1" as="geometry" />
        </mxCell>
        <mxCell id="SC3JEf4WINsSZaT9sH8f-3" value="&lt;font style=&quot;font-size: 14px&quot;&gt;Cliente&lt;/font&gt;" style="rounded=1;whiteSpace=wrap;html=1;fillColor=#dae8fc;strokeColor=#6c8ebf;fontSize=13;" parent="1" vertex="1">
          <mxGeometry x="-1430" y="198" width="120" height="60" as="geometry" />
        </mxCell>
        <mxCell id="SC3JEf4WINsSZaT9sH8f-4" style="edgeStyle=orthogonalEdgeStyle;rounded=0;orthogonalLoop=1;jettySize=auto;html=1;entryX=0.5;entryY=0;entryDx=0;entryDy=0;" parent="1" source="SC3JEf4WINsSZaT9sH8f-5" target="SC3JEf4WINsSZaT9sH8f-8" edge="1">
          <mxGeometry relative="1" as="geometry" />
        </mxCell>
        <mxCell id="SC3JEf4WINsSZaT9sH8f-5" value="&lt;font style=&quot;font-size: 14px&quot;&gt;Seleciona&lt;br&gt;UF/Cidade&lt;/font&gt;" style="shape=trapezoid;perimeter=trapezoidPerimeter;whiteSpace=wrap;html=1;fixedSize=1;rounded=1;fillColor=#f0a30a;strokeColor=#BD7000;fontColor=#ffffff;" parent="1" vertex="1">
          <mxGeometry x="-1110" y="198" width="120" height="60" as="geometry" />
        </mxCell>
        <mxCell id="SC3JEf4WINsSZaT9sH8f-6" value="" style="edgeStyle=orthogonalEdgeStyle;rounded=0;orthogonalLoop=1;jettySize=auto;html=1;" parent="1" source="SC3JEf4WINsSZaT9sH8f-8" target="SC3JEf4WINsSZaT9sH8f-9" edge="1">
          <mxGeometry relative="1" as="geometry" />
        </mxCell>
        <mxCell id="SC3JEf4WINsSZaT9sH8f-7" value="" style="edgeStyle=orthogonalEdgeStyle;rounded=0;orthogonalLoop=1;jettySize=auto;html=1;" parent="1" source="SC3JEf4WINsSZaT9sH8f-8" target="SC3JEf4WINsSZaT9sH8f-14" edge="1">
          <mxGeometry relative="1" as="geometry" />
        </mxCell>
        <mxCell id="SC3JEf4WINsSZaT9sH8f-8" value="&lt;font style=&quot;font-size: 14px&quot;&gt;&lt;b&gt;Cidade &lt;br&gt;sem Frete&lt;/b&gt;&lt;/font&gt;" style="rhombus;whiteSpace=wrap;html=1;" parent="1" vertex="1">
          <mxGeometry x="-1115" y="308" width="130" height="90" as="geometry" />
        </mxCell>
        <mxCell id="SC3JEf4WINsSZaT9sH8f-9" value="&lt;font style=&quot;font-size: 14px&quot;&gt;Redirecionar para Centro de Controle de Leads&lt;/font&gt;" style="whiteSpace=wrap;html=1;fillColor=#dae8fc;strokeColor=#6c8ebf;" parent="1" vertex="1">
          <mxGeometry x="-900" y="323" width="190" height="60" as="geometry" />
        </mxCell>
        <mxCell id="SC3JEf4WINsSZaT9sH8f-10" value="&lt;div&gt;1. Mostrar mensagem de produtos indisponíveis para a região.&lt;/div&gt;&lt;div&gt;2. Registrar casos de cidades sem frete/abrir ticket no SNOW&lt;/div&gt;" style="text;html=1;fillColor=none;align=center;verticalAlign=middle;whiteSpace=wrap;rounded=0;fontStyle=1;strokeColor=#000000;" parent="1" vertex="1">
          <mxGeometry x="-900" y="263" width="420" height="45" as="geometry" />
        </mxCell>
        <mxCell id="SC3JEf4WINsSZaT9sH8f-11" value="" style="edgeStyle=orthogonalEdgeStyle;rounded=0;orthogonalLoop=1;jettySize=auto;html=1;fontSize=13;fontColor=#000000;" parent="1" source="SC3JEf4WINsSZaT9sH8f-14" target="SC3JEf4WINsSZaT9sH8f-15" edge="1">
          <mxGeometry relative="1" as="geometry" />
        </mxCell>
        <mxCell id="SC3JEf4WINsSZaT9sH8f-12" value="" style="edgeStyle=orthogonalEdgeStyle;rounded=0;orthogonalLoop=1;jettySize=auto;html=1;fontSize=13;fontColor=#000000;exitX=0;exitY=0.5;exitDx=0;exitDy=0;entryX=1;entryY=0.5;entryDx=0;entryDy=0;" parent="1" source="SC3JEf4WINsSZaT9sH8f-15" target="SC3JEf4WINsSZaT9sH8f-18" edge="1">
          <mxGeometry relative="1" as="geometry" />
        </mxCell>
        <mxCell id="SC3JEf4WINsSZaT9sH8f-13" value="" style="edgeStyle=orthogonalEdgeStyle;rounded=0;orthogonalLoop=1;jettySize=auto;html=1;fontSize=13;fontColor=#000000;" parent="1" source="SC3JEf4WINsSZaT9sH8f-14" target="SC3JEf4WINsSZaT9sH8f-35" edge="1">
          <mxGeometry relative="1" as="geometry" />
        </mxCell>
        <mxCell id="SC3JEf4WINsSZaT9sH8f-14" value="&lt;p style=&quot;margin-top: 0pt ; margin-bottom: 0pt ; margin-left: 0in ; text-indent: 0in&quot;&gt;&lt;span style=&quot;font-family: &amp;#34;calibri&amp;#34;&quot;&gt;&lt;font style=&quot;font-size: 12px&quot;&gt;Navegação em Produtos:&lt;/font&gt;&lt;/span&gt;&lt;/p&gt;&lt;p style=&quot;margin-top: 0pt ; margin-bottom: 0pt ; margin-left: 0in ; text-indent: 0in&quot;&gt;&lt;font style=&quot;font-size: 12px&quot;&gt;&lt;span style=&quot;font-family: &amp;#34;calibri&amp;#34;&quot;&gt;Add&lt;/span&gt;&lt;span style=&quot;font-family: &amp;#34;calibri&amp;#34; ; vertical-align: baseline&quot;&gt; Carrinho --&amp;gt; Ajustar Quantidades&lt;/span&gt;&lt;span style=&quot;font-family: &amp;#34;calibri&amp;#34;&quot;&gt;&lt;br&gt;&lt;br&gt;&lt;/span&gt;&lt;span style=&quot;font-family: &amp;#34;calibri&amp;#34;&quot;&gt;(Preço Padrão *ver impostos )&lt;/span&gt;&lt;/font&gt;&lt;/p&gt;" style="whiteSpace=wrap;html=1;fillColor=#dae8fc;strokeColor=#6c8ebf;fontStyle=0" parent="1" vertex="1">
          <mxGeometry x="-1220" y="453" width="340" height="85" as="geometry" />
        </mxCell>
        <mxCell id="SC3JEf4WINsSZaT9sH8f-15" value="Checkout&lt;br&gt;(Comprar Produto)" style="whiteSpace=wrap;html=1;fontStyle=0;strokeColor=#6c8ebf;fillColor=#dae8fc;" parent="1" vertex="1">
          <mxGeometry x="-1110" y="630.5" width="120" height="60" as="geometry" />
        </mxCell>
        <mxCell id="SC3JEf4WINsSZaT9sH8f-16" value="" style="edgeStyle=orthogonalEdgeStyle;rounded=0;orthogonalLoop=1;jettySize=auto;html=1;fontSize=13;fontColor=#000000;" parent="1" source="SC3JEf4WINsSZaT9sH8f-18" target="SC3JEf4WINsSZaT9sH8f-20" edge="1">
          <mxGeometry relative="1" as="geometry" />
        </mxCell>
        <mxCell id="SC3JEf4WINsSZaT9sH8f-17" value="" style="edgeStyle=orthogonalEdgeStyle;rounded=0;orthogonalLoop=1;jettySize=auto;html=1;fontSize=13;fontColor=#000000;exitX=0.75;exitY=1;exitDx=0;exitDy=0;entryX=0;entryY=0.5;entryDx=0;entryDy=0;" parent="1" source="SC3JEf4WINsSZaT9sH8f-18" target="SC3JEf4WINsSZaT9sH8f-33" edge="1">
          <mxGeometry relative="1" as="geometry" />
        </mxCell>
        <mxCell id="0uTU3GbLn5igYx63vfDj-4" style="edgeStyle=orthogonalEdgeStyle;rounded=0;orthogonalLoop=1;jettySize=auto;html=1;exitX=0.25;exitY=0;exitDx=0;exitDy=0;entryX=1;entryY=0.5;entryDx=0;entryDy=0;" edge="1" parent="1" source="SC3JEf4WINsSZaT9sH8f-18" target="0uTU3GbLn5igYx63vfDj-3">
          <mxGeometry relative="1" as="geometry" />
        </mxCell>
        <mxCell id="0uTU3GbLn5igYx63vfDj-6" style="edgeStyle=orthogonalEdgeStyle;rounded=0;orthogonalLoop=1;jettySize=auto;html=1;exitX=0.25;exitY=1;exitDx=0;exitDy=0;entryX=0.5;entryY=0;entryDx=0;entryDy=0;" edge="1" parent="1" source="SC3JEf4WINsSZaT9sH8f-18" target="53-n7_swVfXgAftsPMF5-1">
          <mxGeometry relative="1" as="geometry" />
        </mxCell>
        <mxCell id="SC3JEf4WINsSZaT9sH8f-18" value="Autentica/Cadastra Cliente&lt;br&gt;&lt;span&gt;(API Economy)&lt;/span&gt;" style="whiteSpace=wrap;html=1;fontStyle=1;strokeColor=#6c8ebf;fillColor=#dae8fc;" parent="1" vertex="1">
          <mxGeometry x="-1468.5" y="630.5" width="197" height="60" as="geometry" />
        </mxCell>
        <mxCell id="SC3JEf4WINsSZaT9sH8f-19" value="" style="edgeStyle=orthogonalEdgeStyle;rounded=0;orthogonalLoop=1;jettySize=auto;html=1;fontSize=13;fontColor=#000000;" parent="1" source="SC3JEf4WINsSZaT9sH8f-20" target="SC3JEf4WINsSZaT9sH8f-23" edge="1">
          <mxGeometry relative="1" as="geometry" />
        </mxCell>
        <mxCell id="SC3JEf4WINsSZaT9sH8f-20" value="Histórico de Pedidos" style="whiteSpace=wrap;html=1;fontStyle=0;strokeColor=#6c8ebf;fillColor=#dae8fc;" parent="1" vertex="1">
          <mxGeometry x="-1747" y="630.5" width="120" height="60" as="geometry" />
        </mxCell>
        <mxCell id="SC3JEf4WINsSZaT9sH8f-21" value="" style="edgeStyle=orthogonalEdgeStyle;rounded=0;orthogonalLoop=1;jettySize=auto;html=1;fontSize=13;fontColor=#000000;" parent="1" source="SC3JEf4WINsSZaT9sH8f-23" target="SC3JEf4WINsSZaT9sH8f-27" edge="1">
          <mxGeometry relative="1" as="geometry" />
        </mxCell>
        <mxCell id="SC3JEf4WINsSZaT9sH8f-22" value="" style="edgeStyle=orthogonalEdgeStyle;rounded=0;orthogonalLoop=1;jettySize=auto;html=1;fontSize=13;fontColor=#000000;" parent="1" source="SC3JEf4WINsSZaT9sH8f-23" target="SC3JEf4WINsSZaT9sH8f-36" edge="1">
          <mxGeometry relative="1" as="geometry" />
        </mxCell>
        <mxCell id="SC3JEf4WINsSZaT9sH8f-23" value="Meus Pedidos Online" style="whiteSpace=wrap;html=1;fontStyle=0;strokeColor=#6c8ebf;fillColor=#dae8fc;" parent="1" vertex="1">
          <mxGeometry x="-1747" y="770.5" width="120" height="60" as="geometry" />
        </mxCell>
        <mxCell id="SC3JEf4WINsSZaT9sH8f-24" value="" style="edgeStyle=orthogonalEdgeStyle;rounded=0;orthogonalLoop=1;jettySize=auto;html=1;fontSize=13;fontColor=#000000;" parent="1" source="SC3JEf4WINsSZaT9sH8f-27" target="SC3JEf4WINsSZaT9sH8f-28" edge="1">
          <mxGeometry relative="1" as="geometry" />
        </mxCell>
        <mxCell id="SC3JEf4WINsSZaT9sH8f-25" value="" style="edgeStyle=orthogonalEdgeStyle;rounded=0;orthogonalLoop=1;jettySize=auto;html=1;fontSize=13;fontColor=#000000;" parent="1" source="SC3JEf4WINsSZaT9sH8f-27" target="SC3JEf4WINsSZaT9sH8f-29" edge="1">
          <mxGeometry relative="1" as="geometry" />
        </mxCell>
        <mxCell id="SC3JEf4WINsSZaT9sH8f-26" value="" style="edgeStyle=orthogonalEdgeStyle;rounded=0;orthogonalLoop=1;jettySize=auto;html=1;fontSize=13;fontColor=#000000;" parent="1" source="SC3JEf4WINsSZaT9sH8f-27" target="SC3JEf4WINsSZaT9sH8f-30" edge="1">
          <mxGeometry relative="1" as="geometry" />
        </mxCell>
        <mxCell id="SC3JEf4WINsSZaT9sH8f-27" value="Visualizar Pedido" style="whiteSpace=wrap;html=1;fontStyle=0;strokeColor=#6c8ebf;fillColor=#dae8fc;" parent="1" vertex="1">
          <mxGeometry x="-1747" y="910.5" width="120" height="60" as="geometry" />
        </mxCell>
        <mxCell id="SC3JEf4WINsSZaT9sH8f-28" value="Imprimir Segunda Via" style="whiteSpace=wrap;html=1;fontStyle=0;strokeColor=#6c8ebf;fillColor=#dae8fc;" parent="1" vertex="1">
          <mxGeometry x="-1947" y="910.5" width="120" height="60" as="geometry" />
        </mxCell>
        <mxCell id="SC3JEf4WINsSZaT9sH8f-29" value="Status do Pedido" style="whiteSpace=wrap;html=1;fontStyle=0;strokeColor=#6c8ebf;fillColor=#dae8fc;" parent="1" vertex="1">
          <mxGeometry x="-1747" y="1050.5" width="120" height="60" as="geometry" />
        </mxCell>
        <mxCell id="SC3JEf4WINsSZaT9sH8f-30" value="Cancelamento&lt;br&gt;(Abertura SNOW e Atualiza Status automático)&lt;br&gt;- VALIDAR COM COE" style="whiteSpace=wrap;html=1;fontStyle=1;strokeColor=#666666;fillColor=#f5f5f5;fontColor=#333333;" parent="1" vertex="1">
          <mxGeometry x="-1584" y="910.5" width="264" height="60" as="geometry" />
        </mxCell>
        <mxCell id="SC3JEf4WINsSZaT9sH8f-31" value="" style="edgeStyle=orthogonalEdgeStyle;rounded=0;orthogonalLoop=1;jettySize=auto;html=1;fontSize=13;fontColor=#000000;exitX=1;exitY=0.25;exitDx=0;exitDy=0;entryX=0;entryY=0.5;entryDx=0;entryDy=0;" parent="1" source="SC3JEf4WINsSZaT9sH8f-33" target="SC3JEf4WINsSZaT9sH8f-34" edge="1">
          <mxGeometry relative="1" as="geometry">
            <mxPoint x="-891" y="726" as="targetPoint" />
          </mxGeometry>
        </mxCell>
        <mxCell id="SC3JEf4WINsSZaT9sH8f-32" value="" style="edgeStyle=orthogonalEdgeStyle;rounded=0;orthogonalLoop=1;jettySize=auto;html=1;fontSize=13;fontColor=#000000;" parent="1" source="SC3JEf4WINsSZaT9sH8f-33" target="SC3JEf4WINsSZaT9sH8f-39" edge="1">
          <mxGeometry relative="1" as="geometry" />
        </mxCell>
        <mxCell id="0uTU3GbLn5igYx63vfDj-15" style="edgeStyle=orthogonalEdgeStyle;rounded=0;orthogonalLoop=1;jettySize=auto;html=1;entryX=0;entryY=0.5;entryDx=0;entryDy=0;fontSize=13;" edge="1" parent="1" source="SC3JEf4WINsSZaT9sH8f-33" target="SC3JEf4WINsSZaT9sH8f-48">
          <mxGeometry relative="1" as="geometry" />
        </mxCell>
        <mxCell id="SC3JEf4WINsSZaT9sH8f-33" value="Ver carrinho e ajustar Pedido" style="whiteSpace=wrap;html=1;fontStyle=0;strokeColor=#6c8ebf;fillColor=#dae8fc;" parent="1" vertex="1">
          <mxGeometry x="-1124" y="709" width="154" height="61.5" as="geometry" />
        </mxCell>
        <mxCell id="SC3JEf4WINsSZaT9sH8f-34" value="* Forecast para quantidade está disponível em BI.&lt;br&gt;* Existe uma frente de cadastro no  SF.&lt;br&gt;* Não será considerado no MVP" style="whiteSpace=wrap;html=1;fontStyle=0;strokeColor=#C73500;fillColor=#fa6800;fontColor=#ffffff;align=left;spacingLeft=5;" parent="1" vertex="1">
          <mxGeometry x="-845.5" y="630.5" width="473" height="60" as="geometry" />
        </mxCell>
        <mxCell id="SC3JEf4WINsSZaT9sH8f-35" value="&lt;div&gt;* Ver com Pricing uma lista de preços padrão com impostos já calculados.&lt;/div&gt;&lt;div&gt;* SKU: Utilizar o código do material SAP no gerenciamento dos produtos.&lt;/div&gt;&lt;div&gt;&lt;span&gt;* Utilização de Imposto Médio de MA estará no preço final do Produto atualizado por Pricing&lt;/span&gt;&lt;br&gt;&lt;/div&gt;" style="whiteSpace=wrap;html=1;fontStyle=0;strokeColor=#C73500;fillColor=#fa6800;fontColor=#ffffff;align=left;" parent="1" vertex="1">
          <mxGeometry x="-792" y="465.5" width="517" height="60" as="geometry" />
        </mxCell>
        <mxCell id="SC3JEf4WINsSZaT9sH8f-36" value="&lt;div&gt;MVP: DEFINIÇÃO: Trazer histórico de pedidos feitos em outras plataformas.&lt;/div&gt;&lt;div&gt;- Realizar sicronização ce pedidos com SAP: Baixa de pagamento e bloqueio.&lt;/div&gt;" style="whiteSpace=wrap;html=1;fontStyle=0;strokeColor=#C73500;fillColor=#fa6800;fontColor=#ffffff;" parent="1" vertex="1">
          <mxGeometry x="-2266" y="770.5" width="439" height="60" as="geometry" />
        </mxCell>
        <mxCell id="SC3JEf4WINsSZaT9sH8f-37" value="" style="edgeStyle=orthogonalEdgeStyle;rounded=0;orthogonalLoop=1;jettySize=auto;html=1;fontSize=13;fontColor=#000000;" parent="1" source="SC3JEf4WINsSZaT9sH8f-39" target="SC3JEf4WINsSZaT9sH8f-40" edge="1">
          <mxGeometry relative="1" as="geometry" />
        </mxCell>
        <mxCell id="SC3JEf4WINsSZaT9sH8f-38" value="" style="edgeStyle=orthogonalEdgeStyle;rounded=0;orthogonalLoop=1;jettySize=auto;html=1;fontSize=13;fontColor=#000000;" parent="1" source="SC3JEf4WINsSZaT9sH8f-39" target="SC3JEf4WINsSZaT9sH8f-43" edge="1">
          <mxGeometry relative="1" as="geometry" />
        </mxCell>
        <mxCell id="SC3JEf4WINsSZaT9sH8f-39" value="Selecionar Embalagem&lt;br&gt;(Big Bag)" style="whiteSpace=wrap;html=1;fontStyle=0;strokeColor=#6c8ebf;fillColor=#dae8fc;" parent="1" vertex="1">
          <mxGeometry x="-1102.5" y="970.5" width="120" height="60" as="geometry" />
        </mxCell>
        <mxCell id="SC3JEf4WINsSZaT9sH8f-40" value="&lt;div&gt;* MVP: Mostra somente opção de Big Bag, preparando no futuro para novas opções.&lt;/div&gt;&lt;div&gt;* Ao alterar embalagem, será alterado o SKU.&lt;/div&gt;&lt;div&gt;* Tipo de embalagem está configurada na lista de preços.&lt;/div&gt;" style="whiteSpace=wrap;html=1;fontStyle=0;strokeColor=#C73500;fillColor=#fa6800;fontColor=#ffffff;align=left;spacingLeft=5;" parent="1" vertex="1">
          <mxGeometry x="-858" y="970.5" width="473" height="60" as="geometry" />
        </mxCell>
        <mxCell id="SC3JEf4WINsSZaT9sH8f-41" value="" style="edgeStyle=orthogonalEdgeStyle;rounded=0;orthogonalLoop=1;jettySize=auto;html=1;fontSize=13;fontColor=#000000;" parent="1" source="SC3JEf4WINsSZaT9sH8f-43" target="SC3JEf4WINsSZaT9sH8f-44" edge="1">
          <mxGeometry relative="1" as="geometry" />
        </mxCell>
        <mxCell id="0uTU3GbLn5igYx63vfDj-16" style="edgeStyle=orthogonalEdgeStyle;rounded=0;orthogonalLoop=1;jettySize=auto;html=1;fontSize=13;" edge="1" parent="1" source="SC3JEf4WINsSZaT9sH8f-43" target="SC3JEf4WINsSZaT9sH8f-55">
          <mxGeometry relative="1" as="geometry" />
        </mxCell>
        <mxCell id="SC3JEf4WINsSZaT9sH8f-43" value="Selecionar&lt;br&gt;DeliveryDate&lt;br&gt;(Pricing List)" style="whiteSpace=wrap;html=1;fontStyle=0;strokeColor=#6c8ebf;fillColor=#dae8fc;" parent="1" vertex="1">
          <mxGeometry x="-1130.5" y="1080.75" width="176" height="60" as="geometry" />
        </mxCell>
        <mxCell id="SC3JEf4WINsSZaT9sH8f-44" value="&lt;div&gt;* MVP: Permitir &quot;Delivery Date&quot; para cada item do Pedido.&amp;nbsp;&lt;/div&gt;&lt;div&gt;- ETA: Semana aproximada para o Delivery Date.&lt;/div&gt;&lt;div&gt;- MVP: Não teremos &quot;Location&quot; para cada item do pedido.&lt;/div&gt;" style="whiteSpace=wrap;html=1;fontStyle=0;strokeColor=#C73500;fillColor=#fa6800;fontColor=#ffffff;align=left;" parent="1" vertex="1">
          <mxGeometry x="-858" y="1080.75" width="452" height="60" as="geometry" />
        </mxCell>
        <mxCell id="SC3JEf4WINsSZaT9sH8f-48" value="* Mostrar o Endereço de Pagamento como Padrão.&lt;br&gt;* Buscar da API Economy os endereços cadastrados e permitir novo endereço&lt;br&gt;&lt;br&gt;* Verificar com Marcus de Master Data sobre endereços de entrega diferentes." style="whiteSpace=wrap;html=1;fontStyle=0;strokeColor=#C73500;fontColor=#ffffff;align=left;fillColor=#FF0000;" parent="1" vertex="1">
          <mxGeometry x="-845.5" y="748" width="482.5" height="73" as="geometry" />
        </mxCell>
        <mxCell id="SC3JEf4WINsSZaT9sH8f-49" value="" style="edgeStyle=orthogonalEdgeStyle;rounded=0;orthogonalLoop=1;jettySize=auto;html=1;fontSize=13;fontColor=#000000;" parent="1" source="SC3JEf4WINsSZaT9sH8f-51" target="SC3JEf4WINsSZaT9sH8f-52" edge="1">
          <mxGeometry relative="1" as="geometry" />
        </mxCell>
        <mxCell id="SC3JEf4WINsSZaT9sH8f-51" value="Endereço &amp;lt;&amp;gt; Cliente" style="rhombus;whiteSpace=wrap;html=1;strokeColor=#000000;fontSize=13;fontColor=#000000;align=center;fontStyle=1" parent="1" vertex="1">
          <mxGeometry x="-1364" y="1181.25" width="165" height="80" as="geometry" />
        </mxCell>
        <mxCell id="SC3JEf4WINsSZaT9sH8f-52" value="Cadastrar Novo" style="whiteSpace=wrap;html=1;fontSize=13;fontStyle=1;" parent="1" vertex="1">
          <mxGeometry x="-1586.5" y="1191.25" width="120" height="60" as="geometry" />
        </mxCell>
        <mxCell id="SC3JEf4WINsSZaT9sH8f-53" style="edgeStyle=orthogonalEdgeStyle;rounded=0;orthogonalLoop=1;jettySize=auto;html=1;entryX=0;entryY=0.5;entryDx=0;entryDy=0;fontSize=13;fontColor=#000000;" parent="1" source="SC3JEf4WINsSZaT9sH8f-55" target="SC3JEf4WINsSZaT9sH8f-56" edge="1">
          <mxGeometry relative="1" as="geometry" />
        </mxCell>
        <mxCell id="SC3JEf4WINsSZaT9sH8f-54" value="" style="edgeStyle=orthogonalEdgeStyle;rounded=0;orthogonalLoop=1;jettySize=auto;html=1;fontSize=13;fontColor=#000000;" parent="1" source="SC3JEf4WINsSZaT9sH8f-55" target="SC3JEf4WINsSZaT9sH8f-58" edge="1">
          <mxGeometry relative="1" as="geometry" />
        </mxCell>
        <mxCell id="SC3JEf4WINsSZaT9sH8f-55" value="Resumo do Pedido: &lt;br&gt;Preço + Frete" style="whiteSpace=wrap;html=1;fontSize=13;fontStyle=0;fillColor=#dae8fc;strokeColor=#6c8ebf;" parent="1" vertex="1">
          <mxGeometry x="-1143.5" y="1351.25" width="201" height="60" as="geometry" />
        </mxCell>
        <mxCell id="0uTU3GbLn5igYx63vfDj-19" value="" style="edgeStyle=orthogonalEdgeStyle;rounded=0;orthogonalLoop=1;jettySize=auto;html=1;fontSize=13;" edge="1" parent="1" source="SC3JEf4WINsSZaT9sH8f-56" target="0uTU3GbLn5igYx63vfDj-18">
          <mxGeometry relative="1" as="geometry" />
        </mxCell>
        <mxCell id="SC3JEf4WINsSZaT9sH8f-56" value="&lt;p style=&quot;margin-top: 0pt ; margin-bottom: 0pt ; margin-left: 0in ; text-indent: 0in ; font-size: 14px&quot;&gt;&lt;font face=&quot;calibri&quot; style=&quot;font-size: 14px&quot;&gt;&lt;b&gt;* Tabela de Fretes do SAP (PriceCheck) - Atualização quinzenal.&lt;/b&gt;&lt;/font&gt;&lt;/p&gt;&lt;p style=&quot;margin-top: 0pt ; margin-bottom: 0pt ; margin-left: 0in ; text-indent: 0in ; font-size: 14px&quot;&gt;&lt;font face=&quot;calibri&quot; style=&quot;font-size: 14px&quot;&gt;&lt;b&gt;Origem: Código da Planta (SLZ1)&lt;/b&gt;&lt;/font&gt;&lt;/p&gt;&lt;p style=&quot;margin-top: 0pt ; margin-bottom: 0pt ; margin-left: 0in ; text-indent: 0in ; font-size: 14px&quot;&gt;&lt;font face=&quot;calibri&quot; style=&quot;font-size: 14px&quot;&gt;&lt;b&gt;Destino:&amp;nbsp; Código do Cliente&lt;/b&gt;&lt;/font&gt;&lt;/p&gt;&lt;p style=&quot;margin-top: 0pt ; margin-bottom: 0pt ; margin-left: 0in ; text-indent: 0in ; font-size: 14px&quot;&gt;&lt;font face=&quot;calibri&quot; style=&quot;font-size: 14px&quot;&gt;&lt;b&gt;SKU:&lt;/b&gt;&lt;/font&gt;&lt;/p&gt;&lt;p style=&quot;margin-top: 0pt ; margin-bottom: 0pt ; margin-left: 0in ; text-indent: 0in ; font-size: 14px&quot;&gt;&lt;font face=&quot;calibri&quot; style=&quot;font-size: 14px&quot;&gt;&lt;b&gt;Quantidade:&lt;/b&gt;&lt;/font&gt;&lt;/p&gt;" style="whiteSpace=wrap;html=1;fontStyle=0;strokeColor=#C73500;fillColor=#fa6800;fontColor=#ffffff;align=left;spacingLeft=5;" parent="1" vertex="1">
          <mxGeometry x="-858" y="1329.62" width="496" height="103.25" as="geometry" />
        </mxCell>
        <mxCell id="SC3JEf4WINsSZaT9sH8f-57" value="" style="edgeStyle=orthogonalEdgeStyle;rounded=0;orthogonalLoop=1;jettySize=auto;html=1;fontSize=13;fontColor=#000000;" parent="1" source="SC3JEf4WINsSZaT9sH8f-58" target="SC3JEf4WINsSZaT9sH8f-59" edge="1">
          <mxGeometry relative="1" as="geometry" />
        </mxCell>
        <mxCell id="SC3JEf4WINsSZaT9sH8f-58" value="Fechar Pedido" style="whiteSpace=wrap;html=1;fontSize=13;fontStyle=0;strokeColor=#005700;fillColor=#008a00;fontColor=#ffffff;" parent="1" vertex="1">
          <mxGeometry x="-1102.5" y="1551" width="120" height="60" as="geometry" />
        </mxCell>
        <mxCell id="SC3JEf4WINsSZaT9sH8f-59" value="Meio de Pagamento:&amp;nbsp;&lt;br&gt;Gerar Boleto" style="whiteSpace=wrap;html=1;fontSize=13;fontStyle=0;strokeColor=#6c8ebf;fillColor=#dae8fc;" parent="1" vertex="1">
          <mxGeometry x="-1153" y="1694" width="220" height="60" as="geometry" />
        </mxCell>
        <mxCell id="SC3JEf4WINsSZaT9sH8f-61" style="edgeStyle=orthogonalEdgeStyle;rounded=0;orthogonalLoop=1;jettySize=auto;html=1;entryX=0.5;entryY=0;entryDx=0;entryDy=0;" parent="1" source="SC3JEf4WINsSZaT9sH8f-60" target="SC3JEf4WINsSZaT9sH8f-64" edge="1">
          <mxGeometry relative="1" as="geometry">
            <mxPoint x="1414" y="210" as="targetPoint" />
          </mxGeometry>
        </mxCell>
        <mxCell id="SC3JEf4WINsSZaT9sH8f-60" value="Yara Brazil" style="ellipse;whiteSpace=wrap;html=1;aspect=fixed;" parent="1" vertex="1">
          <mxGeometry x="1374" y="44" width="80" height="80" as="geometry" />
        </mxCell>
        <mxCell id="SC3JEf4WINsSZaT9sH8f-67" style="edgeStyle=orthogonalEdgeStyle;rounded=0;orthogonalLoop=1;jettySize=auto;html=1;entryX=0.46;entryY=0.014;entryDx=0;entryDy=0;entryPerimeter=0;startArrow=none;startFill=0;endArrow=classic;endFill=1;" parent="1" source="SC3JEf4WINsSZaT9sH8f-64" target="jS5UeziIzz8t74J8Ag5z-44" edge="1">
          <mxGeometry relative="1" as="geometry" />
        </mxCell>
        <mxCell id="YiUYvIcf1jTSnU425tms-48" style="edgeStyle=orthogonalEdgeStyle;rounded=0;orthogonalLoop=1;jettySize=auto;html=1;exitX=0;exitY=1;exitDx=0;exitDy=0;entryX=1;entryY=0.5;entryDx=0;entryDy=0;startArrow=none;startFill=0;endArrow=classic;endFill=1;" parent="1" source="SC3JEf4WINsSZaT9sH8f-64" target="jS5UeziIzz8t74J8Ag5z-50" edge="1">
          <mxGeometry relative="1" as="geometry">
            <Array as="points">
              <mxPoint x="1373" y="366" />
            </Array>
          </mxGeometry>
        </mxCell>
        <mxCell id="SC3JEf4WINsSZaT9sH8f-64" value="&lt;span style=&quot;font-size: 14px&quot;&gt;&lt;b&gt;Modal &lt;br&gt;login / Register&lt;/b&gt;&lt;/span&gt;" style="rhombus;whiteSpace=wrap;html=1;fillColor=#fff2cc;strokeColor=#d6b656;" parent="1" vertex="1">
          <mxGeometry x="1332.39" y="183.5" width="163.22" height="113" as="geometry" />
        </mxCell>
        <mxCell id="SC3JEf4WINsSZaT9sH8f-68" value="YES" style="text;html=1;strokeColor=none;fillColor=none;align=center;verticalAlign=middle;whiteSpace=wrap;rounded=0;" parent="1" vertex="1">
          <mxGeometry x="1265" y="210" width="40" height="20" as="geometry" />
        </mxCell>
        <mxCell id="SC3JEf4WINsSZaT9sH8f-70" value="SKIP" style="text;html=1;strokeColor=none;fillColor=none;align=center;verticalAlign=middle;whiteSpace=wrap;rounded=0;" parent="1" vertex="1">
          <mxGeometry x="1423" y="325" width="40" height="20" as="geometry" />
        </mxCell>
        <mxCell id="SC3JEf4WINsSZaT9sH8f-73" value="Login with Portal do Cliente Credentials" style="text;html=1;strokeColor=none;fillColor=none;align=center;verticalAlign=middle;whiteSpace=wrap;rounded=0;" parent="1" vertex="1">
          <mxGeometry x="1201" y="257" width="110" height="20" as="geometry" />
        </mxCell>
        <mxCell id="SC3JEf4WINsSZaT9sH8f-78" style="edgeStyle=orthogonalEdgeStyle;rounded=0;orthogonalLoop=1;jettySize=auto;html=1;entryX=0;entryY=0.5;entryDx=0;entryDy=0;startArrow=none;startFill=0;endArrow=classic;endFill=1;" parent="1" source="SC3JEf4WINsSZaT9sH8f-75" target="jS5UeziIzz8t74J8Ag5z-31" edge="1">
          <mxGeometry relative="1" as="geometry" />
        </mxCell>
        <mxCell id="SC3JEf4WINsSZaT9sH8f-80" style="edgeStyle=orthogonalEdgeStyle;rounded=0;orthogonalLoop=1;jettySize=auto;html=1;entryX=0.5;entryY=0;entryDx=0;entryDy=0;startArrow=none;startFill=0;endArrow=classic;endFill=1;" parent="1" edge="1">
          <mxGeometry relative="1" as="geometry">
            <mxPoint x="1419.5" y="599" as="sourcePoint" />
            <mxPoint x="1419.5" y="660" as="targetPoint" />
          </mxGeometry>
        </mxCell>
        <mxCell id="SC3JEf4WINsSZaT9sH8f-75" value="Browse available products and select one" style="whiteSpace=wrap;html=1;fontStyle=0;strokeColor=#6c8ebf;fillColor=#dae8fc;" parent="1" vertex="1">
          <mxGeometry x="1328" y="539" width="187" height="60" as="geometry" />
        </mxCell>
        <mxCell id="SC3JEf4WINsSZaT9sH8f-79" value="Set Quantity&lt;br&gt;- 37 tons truck&lt;br&gt;- 48 tons truck" style="whiteSpace=wrap;html=1;fontStyle=0;strokeColor=#6c8ebf;fillColor=#dae8fc;" parent="1" vertex="1">
          <mxGeometry x="1328" y="660" width="187" height="60" as="geometry" />
        </mxCell>
        <mxCell id="YiUYvIcf1jTSnU425tms-3" value="&lt;span style=&quot;font-size: 14px&quot;&gt;&lt;b&gt;Modal &lt;br&gt;login / Register&lt;/b&gt;&lt;/span&gt;" style="rhombus;whiteSpace=wrap;html=1;fillColor=#fff2cc;strokeColor=#d6b656;" parent="1" vertex="1">
          <mxGeometry x="1101.7800000000002" y="756" width="163.22" height="113" as="geometry" />
        </mxCell>
        <mxCell id="YiUYvIcf1jTSnU425tms-35" value="" style="edgeStyle=orthogonalEdgeStyle;rounded=0;orthogonalLoop=1;jettySize=auto;html=1;fontSize=13;fontColor=#000000;" parent="1" source="YiUYvIcf1jTSnU425tms-36" target="YiUYvIcf1jTSnU425tms-39" edge="1">
          <mxGeometry relative="1" as="geometry" />
        </mxCell>
        <mxCell id="YiUYvIcf1jTSnU425tms-36" value="Histórico de Pedidos" style="whiteSpace=wrap;html=1;fontStyle=0;strokeColor=#6c8ebf;fillColor=#dae8fc;" parent="1" vertex="1">
          <mxGeometry x="517" y="308.5" width="120" height="60" as="geometry" />
        </mxCell>
        <mxCell id="YiUYvIcf1jTSnU425tms-37" value="" style="edgeStyle=orthogonalEdgeStyle;rounded=0;orthogonalLoop=1;jettySize=auto;html=1;fontSize=13;fontColor=#000000;" parent="1" source="YiUYvIcf1jTSnU425tms-39" target="YiUYvIcf1jTSnU425tms-43" edge="1">
          <mxGeometry relative="1" as="geometry" />
        </mxCell>
        <mxCell id="YiUYvIcf1jTSnU425tms-38" value="" style="edgeStyle=orthogonalEdgeStyle;rounded=0;orthogonalLoop=1;jettySize=auto;html=1;fontSize=13;fontColor=#000000;" parent="1" source="YiUYvIcf1jTSnU425tms-39" target="YiUYvIcf1jTSnU425tms-47" edge="1">
          <mxGeometry relative="1" as="geometry" />
        </mxCell>
        <mxCell id="YiUYvIcf1jTSnU425tms-39" value="Meus Pedidos Online" style="whiteSpace=wrap;html=1;fontStyle=0;strokeColor=#6c8ebf;fillColor=#dae8fc;" parent="1" vertex="1">
          <mxGeometry x="517" y="448.5" width="120" height="60" as="geometry" />
        </mxCell>
        <mxCell id="YiUYvIcf1jTSnU425tms-40" value="" style="edgeStyle=orthogonalEdgeStyle;rounded=0;orthogonalLoop=1;jettySize=auto;html=1;fontSize=13;fontColor=#000000;" parent="1" source="YiUYvIcf1jTSnU425tms-43" target="YiUYvIcf1jTSnU425tms-44" edge="1">
          <mxGeometry relative="1" as="geometry" />
        </mxCell>
        <mxCell id="YiUYvIcf1jTSnU425tms-41" value="" style="edgeStyle=orthogonalEdgeStyle;rounded=0;orthogonalLoop=1;jettySize=auto;html=1;fontSize=13;fontColor=#000000;" parent="1" source="YiUYvIcf1jTSnU425tms-43" target="YiUYvIcf1jTSnU425tms-45" edge="1">
          <mxGeometry relative="1" as="geometry" />
        </mxCell>
        <mxCell id="YiUYvIcf1jTSnU425tms-42" value="" style="edgeStyle=orthogonalEdgeStyle;rounded=0;orthogonalLoop=1;jettySize=auto;html=1;fontSize=13;fontColor=#000000;" parent="1" source="YiUYvIcf1jTSnU425tms-43" target="YiUYvIcf1jTSnU425tms-46" edge="1">
          <mxGeometry relative="1" as="geometry" />
        </mxCell>
        <mxCell id="YiUYvIcf1jTSnU425tms-43" value="Visualizar Pedido" style="whiteSpace=wrap;html=1;fontStyle=0;strokeColor=#6c8ebf;fillColor=#dae8fc;" parent="1" vertex="1">
          <mxGeometry x="517" y="588.5" width="120" height="60" as="geometry" />
        </mxCell>
        <mxCell id="YiUYvIcf1jTSnU425tms-44" value="Imprimir Segunda Via" style="whiteSpace=wrap;html=1;fontStyle=0;strokeColor=#6c8ebf;fillColor=#dae8fc;" parent="1" vertex="1">
          <mxGeometry x="317" y="588.5" width="120" height="60" as="geometry" />
        </mxCell>
        <mxCell id="YiUYvIcf1jTSnU425tms-45" value="Status do Pedido" style="whiteSpace=wrap;html=1;fontStyle=0;strokeColor=#6c8ebf;fillColor=#dae8fc;" parent="1" vertex="1">
          <mxGeometry x="517" y="728.5" width="120" height="60" as="geometry" />
        </mxCell>
        <mxCell id="YiUYvIcf1jTSnU425tms-46" value="Cancelamento&lt;br&gt;(verificar com Jurídico)" style="whiteSpace=wrap;html=1;fontStyle=0;strokeColor=#6c8ebf;fillColor=#dae8fc;" parent="1" vertex="1">
          <mxGeometry x="713" y="588.5" width="120" height="60" as="geometry" />
        </mxCell>
        <mxCell id="YiUYvIcf1jTSnU425tms-47" value="&lt;div&gt;MVP: DEFINIÇÃO: Trazer histórico de pedidos feitos em outras plataformas.&lt;/div&gt;&lt;div&gt;- Realizar sicronização ce pedidos com SAP: Baixa de pagamento e bloqueio.&lt;/div&gt;" style="whiteSpace=wrap;html=1;fontStyle=0;strokeColor=#C73500;fillColor=#fa6800;fontColor=#ffffff;" parent="1" vertex="1">
          <mxGeometry x="96" y="433" width="327" height="90.5" as="geometry" />
        </mxCell>
        <mxCell id="53-n7_swVfXgAftsPMF5-1" value="Se Cliente Novo -&amp;gt; &lt;br style=&quot;font-size: 13px&quot;&gt;Consulta Midas&lt;br&gt;&lt;br&gt;SE CLIENTE EXISTE -&amp;gt;&lt;br&gt;pegar status de bloqueio" style="whiteSpace=wrap;html=1;fontStyle=0;strokeColor=#B20000;fillColor=#e51400;fontColor=#ffffff;align=center;spacingLeft=5;fontSize=13;" parent="1" vertex="1">
          <mxGeometry x="-1551" y="770.5" width="187" height="87.5" as="geometry" />
        </mxCell>
        <mxCell id="53-n7_swVfXgAftsPMF5-3" value="" style="edgeStyle=orthogonalEdgeStyle;rounded=0;orthogonalLoop=1;jettySize=auto;html=1;fontSize=15;exitX=1;exitY=0.5;exitDx=0;exitDy=0;" parent="1" source="SC3JEf4WINsSZaT9sH8f-58" target="53-n7_swVfXgAftsPMF5-4" edge="1">
          <mxGeometry relative="1" as="geometry">
            <mxPoint x="-1016.28" y="1570" as="sourcePoint" />
          </mxGeometry>
        </mxCell>
        <mxCell id="53-n7_swVfXgAftsPMF5-4" value="Ingressar Pedido no SAP e mostrar o PO para o cliente" style="whiteSpace=wrap;html=1;fontSize=13;fontColor=#ffffff;fontStyle=0;strokeColor=#005700;fillColor=#008a00;" parent="1" vertex="1">
          <mxGeometry x="-857" y="1551" width="495" height="60" as="geometry" />
        </mxCell>
        <mxCell id="0uTU3GbLn5igYx63vfDj-3" value="Cadastro de Novo Cliente atualiza dados e cadastra senha.&lt;br&gt;&lt;br&gt;MVP: Base Local: CNPJ\CPF\IE\Senha&lt;br&gt;Outras infos serão carregadas no SAP." style="whiteSpace=wrap;html=1;fontStyle=0;strokeColor=#C73500;fillColor=#fa6800;fontColor=#ffffff;align=left;spacingLeft=5;" vertex="1" parent="1">
          <mxGeometry x="-1760" y="484" width="264" height="84.5" as="geometry" />
        </mxCell>
        <mxCell id="0uTU3GbLn5igYx63vfDj-9" value="" style="edgeStyle=orthogonalEdgeStyle;rounded=0;orthogonalLoop=1;jettySize=auto;html=1;fontSize=13;entryX=0.5;entryY=1;entryDx=0;entryDy=0;" edge="1" parent="1" source="0uTU3GbLn5igYx63vfDj-7" target="0uTU3GbLn5igYx63vfDj-8">
          <mxGeometry relative="1" as="geometry" />
        </mxCell>
        <mxCell id="0uTU3GbLn5igYx63vfDj-12" style="edgeStyle=orthogonalEdgeStyle;rounded=0;orthogonalLoop=1;jettySize=auto;html=1;fontSize=13;" edge="1" parent="1" source="0uTU3GbLn5igYx63vfDj-7" target="0uTU3GbLn5igYx63vfDj-14">
          <mxGeometry relative="1" as="geometry">
            <mxPoint x="-825" y="899" as="targetPoint" />
          </mxGeometry>
        </mxCell>
        <mxCell id="0uTU3GbLn5igYx63vfDj-7" value="SE CLIENTE BLOQUEADO, NÃO PROSSEGUIR" style="whiteSpace=wrap;html=1;fontStyle=0;strokeColor=#B20000;fillColor=#e51400;fontColor=#ffffff;align=center;spacingLeft=5;fontSize=13;" vertex="1" parent="1">
          <mxGeometry x="-1124" y="869" width="163" height="60" as="geometry" />
        </mxCell>
        <mxCell id="0uTU3GbLn5igYx63vfDj-8" value="Mensagem" style="ellipse;whiteSpace=wrap;html=1;fontSize=13;fontColor=#ffffff;fontStyle=0;strokeColor=#B20000;fillColor=#e51400;spacingLeft=5;" vertex="1" parent="1">
          <mxGeometry x="-1289" y="781" width="120" height="80" as="geometry" />
        </mxCell>
        <mxCell id="0uTU3GbLn5igYx63vfDj-14" value="Log de Erro&lt;br&gt;Relatório" style="ellipse;whiteSpace=wrap;html=1;fontSize=13;fontColor=#ffffff;fontStyle=0;strokeColor=#B20000;fillColor=#e51400;spacingLeft=5;" vertex="1" parent="1">
          <mxGeometry x="-1289" y="946" width="120" height="80" as="geometry" />
        </mxCell>
        <mxCell id="0uTU3GbLn5igYx63vfDj-18" value="BUSCA FRETE NO SAP" style="whiteSpace=wrap;html=1;fontColor=#ffffff;fontStyle=0;align=center;strokeColor=#C73500;fillColor=#fa6800;spacingLeft=5;" vertex="1" parent="1">
          <mxGeometry x="-702.75" y="1209.63" width="185.5" height="60" as="geometry" />
        </mxCell>
      </root>
    </mxGraphModel>
  </diagram>
  <diagram id="F6C4VkJwRCMh--I10GQn" name="Entrega">
    <mxGraphModel dx="1025" dy="469" grid="1" gridSize="10" guides="1" tooltips="1" connect="1" arrows="1" fold="1" page="1" pageScale="1" pageWidth="850" pageHeight="1100" math="0" shadow="0">
      <root>
        <mxCell id="eeA8OCcnUGyq8BiIao9--0" />
        <mxCell id="eeA8OCcnUGyq8BiIao9--1" parent="eeA8OCcnUGyq8BiIao9--0" />
        <mxCell id="eeA8OCcnUGyq8BiIao9--5" value="" style="edgeStyle=orthogonalEdgeStyle;rounded=0;orthogonalLoop=1;jettySize=auto;html=1;fontSize=13;fontColor=#000000;" parent="eeA8OCcnUGyq8BiIao9--1" source="eeA8OCcnUGyq8BiIao9--3" target="eeA8OCcnUGyq8BiIao9--4" edge="1">
          <mxGeometry relative="1" as="geometry" />
        </mxCell>
        <mxCell id="eeA8OCcnUGyq8BiIao9--3" value="Liberar Pedido" style="rounded=0;whiteSpace=wrap;html=1;strokeColor=#6c8ebf;fontSize=13;align=center;fillColor=#dae8fc;" parent="eeA8OCcnUGyq8BiIao9--1" vertex="1">
          <mxGeometry x="110" y="80" width="120" height="60" as="geometry" />
        </mxCell>
        <mxCell id="eeA8OCcnUGyq8BiIao9--4" value="Pedidos Liberados para Transporte" style="whiteSpace=wrap;html=1;rounded=0;fontSize=13;strokeColor=#6c8ebf;fillColor=#dae8fc;" parent="eeA8OCcnUGyq8BiIao9--1" vertex="1">
          <mxGeometry x="110" y="220" width="120" height="60" as="geometry" />
        </mxCell>
        <mxCell id="eeA8OCcnUGyq8BiIao9--8" style="edgeStyle=orthogonalEdgeStyle;rounded=0;orthogonalLoop=1;jettySize=auto;html=1;entryX=1;entryY=0.5;entryDx=0;entryDy=0;fontSize=13;fontColor=#000000;" parent="eeA8OCcnUGyq8BiIao9--1" source="eeA8OCcnUGyq8BiIao9--6" target="eeA8OCcnUGyq8BiIao9--3" edge="1">
          <mxGeometry relative="1" as="geometry" />
        </mxCell>
        <mxCell id="eeA8OCcnUGyq8BiIao9--6" value="Proceso de Conciliação bancária automática" style="rounded=0;whiteSpace=wrap;html=1;strokeColor=#C73500;fontSize=13;align=center;fillColor=#fa6800;fontColor=#ffffff;" parent="eeA8OCcnUGyq8BiIao9--1" vertex="1">
          <mxGeometry x="310" y="80" width="200" height="60" as="geometry" />
        </mxCell>
        <mxCell id="eeA8OCcnUGyq8BiIao9--10" style="edgeStyle=orthogonalEdgeStyle;rounded=0;orthogonalLoop=1;jettySize=auto;html=1;fontSize=13;fontColor=#000000;" parent="eeA8OCcnUGyq8BiIao9--1" source="eeA8OCcnUGyq8BiIao9--9" target="eeA8OCcnUGyq8BiIao9--4" edge="1">
          <mxGeometry relative="1" as="geometry" />
        </mxCell>
        <mxCell id="eeA8OCcnUGyq8BiIao9--13" value="" style="edgeStyle=orthogonalEdgeStyle;rounded=0;orthogonalLoop=1;jettySize=auto;html=1;fontSize=13;fontColor=#000000;" parent="eeA8OCcnUGyq8BiIao9--1" source="eeA8OCcnUGyq8BiIao9--9" target="eeA8OCcnUGyq8BiIao9--12" edge="1">
          <mxGeometry relative="1" as="geometry" />
        </mxCell>
        <mxCell id="eeA8OCcnUGyq8BiIao9--9" value="PA" style="whiteSpace=wrap;html=1;rounded=1;fontSize=13;strokeColor=#36393d;fillColor=#cdeb8b;" parent="eeA8OCcnUGyq8BiIao9--1" vertex="1">
          <mxGeometry x="320" y="220" width="120" height="60" as="geometry" />
        </mxCell>
        <mxCell id="eeA8OCcnUGyq8BiIao9--15" value="" style="edgeStyle=orthogonalEdgeStyle;rounded=0;orthogonalLoop=1;jettySize=auto;html=1;fontSize=13;fontColor=#000000;" parent="eeA8OCcnUGyq8BiIao9--1" source="eeA8OCcnUGyq8BiIao9--12" target="eeA8OCcnUGyq8BiIao9--14" edge="1">
          <mxGeometry relative="1" as="geometry" />
        </mxCell>
        <mxCell id="eeA8OCcnUGyq8BiIao9--12" value="Criação do Transporte" style="whiteSpace=wrap;html=1;rounded=0;fontSize=13;strokeColor=#6c8ebf;fillColor=#dae8fc;" parent="eeA8OCcnUGyq8BiIao9--1" vertex="1">
          <mxGeometry x="320" y="330" width="120" height="60" as="geometry" />
        </mxCell>
        <mxCell id="eeA8OCcnUGyq8BiIao9--14" value="Carregamento" style="whiteSpace=wrap;html=1;rounded=0;fontSize=13;strokeColor=#6c8ebf;fillColor=#dae8fc;" parent="eeA8OCcnUGyq8BiIao9--1" vertex="1">
          <mxGeometry x="320" y="440" width="120" height="60" as="geometry" />
        </mxCell>
      </root>
    </mxGraphModel>
  </diagram>
</mxfile>
